<svg width="191" height="85" viewBox="0 0 191 85" fill="none" xmlns="http://www.w3.org/2000/svg">
<path d="M0.191762 84.5909V20.0909H13.0185V27.9702H13.5987C14.1688 26.7079 14.9934 25.4252 16.0724 24.1222C17.1719 22.7988 18.5971 21.6993 20.348 20.8239C22.1193 19.928 24.3182 19.4801 26.9446 19.4801C30.3651 19.4801 33.5208 20.3759 36.4119 22.1676C39.303 23.9389 41.6139 26.6162 43.3445 30.1996C45.075 33.7625 45.9403 38.2315 45.9403 43.6065C45.9403 48.839 45.0954 53.2571 43.4055 56.8608C41.736 60.4441 39.4557 63.1622 36.5646 65.0149C33.6939 66.8473 30.477 67.7635 26.9141 67.7635C24.3894 67.7635 22.2415 67.3461 20.4702 66.5114C18.7192 65.6766 17.2839 64.6281 16.1641 63.3658C15.0443 62.0831 14.1892 60.7902 13.5987 59.4872H13.2017V84.5909H0.191762ZM12.9268 43.5455C12.9268 46.3348 13.3137 48.7678 14.0874 50.8445C14.861 52.9212 15.9808 54.5398 17.4467 55.7003C18.9126 56.8404 20.6941 57.4105 22.7912 57.4105C24.9086 57.4105 26.7003 56.8303 28.1662 55.6697C29.6321 54.4889 30.7417 52.8601 31.495 50.7834C32.2687 48.6863 32.6555 46.2737 32.6555 43.5455C32.6555 40.8376 32.2789 38.4555 31.5256 36.3991C30.7723 34.3428 29.6626 32.7344 28.1967 31.5739C26.7308 30.4134 24.929 29.8331 22.7912 29.8331C20.6738 29.8331 18.8821 30.393 17.4162 31.5128C15.9706 32.6326 14.861 34.2206 14.0874 36.277C13.3137 38.3333 12.9268 40.7562 12.9268 43.5455ZM54.6136 67V20.0909H67.6236V67H54.6136ZM61.1491 14.044C59.215 14.044 57.5556 13.4027 56.1712 12.12C54.8071 10.817 54.125 9.25947 54.125 7.44744C54.125 5.65577 54.8071 4.11861 56.1712 2.83594C57.5556 1.53291 59.215 0.881389 61.1491 0.881389C63.0833 0.881389 64.7325 1.53291 66.0966 2.83594C67.4811 4.11861 68.1733 5.65577 68.1733 7.44744C68.1733 9.25947 67.4811 10.817 66.0966 12.12C64.7325 13.4027 63.0833 14.044 61.1491 14.044ZM88.9174 20.0909L97.5297 36.4908L106.356 20.0909H119.702L106.111 43.5455L120.068 67H106.783L97.5297 50.7834L88.4288 67H74.9913L88.9174 43.5455L75.4799 20.0909H88.9174ZM147.126 67.9162C142.301 67.9162 138.148 66.9389 134.666 64.9844C131.205 63.0095 128.538 60.2202 126.665 56.6165C124.791 52.9924 123.855 48.7067 123.855 43.7592C123.855 38.9339 124.791 34.6991 126.665 31.0547C128.538 27.4103 131.174 24.5701 134.574 22.5341C137.995 20.4981 142.006 19.4801 146.607 19.4801C149.702 19.4801 152.583 19.9789 155.25 20.9766C157.937 21.9538 160.279 23.4299 162.274 25.4048C164.29 27.3797 165.857 29.8636 166.977 32.8565C168.097 35.8291 168.657 39.3106 168.657 43.3011V46.8743H129.047V38.8118H156.41C156.41 36.9387 156.003 35.2794 155.189 33.8338C154.374 32.3883 153.244 31.2583 151.799 30.4439C150.374 29.6091 148.714 29.1918 146.821 29.1918C144.846 29.1918 143.095 29.6499 141.568 30.566C140.061 31.4619 138.881 32.6733 138.025 34.2003C137.17 35.7069 136.733 37.3866 136.712 39.2393V46.9048C136.712 49.2259 137.14 51.2313 137.995 52.9212C138.87 54.611 140.102 55.9141 141.69 56.8303C143.278 57.7464 145.162 58.2045 147.34 58.2045C148.786 58.2045 150.109 58.0009 151.31 57.5938C152.511 57.1866 153.54 56.5758 154.395 55.7614C155.25 54.947 155.901 53.9493 156.349 52.7685L168.382 53.5625C167.771 56.4536 166.519 58.9782 164.626 61.1364C162.752 63.2741 160.33 64.9437 157.357 66.1449C154.405 67.3258 150.995 67.9162 147.126 67.9162ZM190.157 4.45454V67H177.147V4.45454H190.157Z" fill="#FFFCFC"/>
</svg>
