<svg width="36" height="36" viewBox="0 0 36 36" fill="none" xmlns="http://www.w3.org/2000/svg">
<path d="M29.4495 11.9956C29.469 12.2581 29.469 12.5191 29.469 12.7801C29.469 20.7676 23.3895 29.9716 12.279 29.9716C8.856 29.9716 5.676 28.9801 3 27.2581C3.486 27.3136 3.954 27.3331 4.4595 27.3331C7.17899 27.3396 9.82147 26.4303 11.961 24.7516C10.7001 24.7287 9.47786 24.3128 8.46486 23.5617C7.45185 22.8106 6.69868 21.7619 6.3105 20.5621C6.684 20.6176 7.059 20.6551 7.452 20.6551C7.9935 20.6551 8.538 20.5801 9.0435 20.4496C7.67514 20.1733 6.44471 19.4316 5.56143 18.3506C4.67815 17.2696 4.19654 15.916 4.1985 14.5201V14.4451C5.004 14.8936 5.9385 15.1741 6.9285 15.2116C6.09913 14.6604 5.41908 13.9126 4.94901 13.0348C4.47894 12.1569 4.23347 11.1763 4.2345 10.1806C4.2345 9.05857 4.533 8.02957 5.0565 7.13257C6.57471 9.0001 8.46825 10.5279 10.6145 11.6171C12.7608 12.7062 15.1118 13.3324 17.5155 13.4551C17.4225 13.0051 17.3655 12.5386 17.3655 12.0706C17.3651 11.277 17.5211 10.4912 17.8246 9.75793C18.1281 9.0247 18.5732 8.35848 19.1343 7.79735C19.6954 7.23622 20.3616 6.79118 21.0949 6.48768C21.8281 6.18418 22.6139 6.02817 23.4075 6.02857C25.1475 6.02857 26.718 6.75756 27.822 7.93657C29.1747 7.67499 30.4718 7.1812 31.656 6.47706C31.2051 7.87329 30.2606 9.05722 28.9995 9.80707C30.1992 9.67023 31.3717 9.35474 32.478 8.87107C31.6517 10.0757 30.6278 11.1321 29.4495 11.9956V11.9956Z" fill="white" fill-opacity="0.78"/>
</svg>
